<svg width="1600" height="375" viewBox="0 0 1600 375" fill="none" xmlns="http://www.w3.org/2000/svg">
<g clip-path="url(#clip0_6631_94046)">
<path d="M122.898 7.17188L139.789 36.6476C143.17 42.7473 143.17 50.2007 139.789 56.2981L39.1096 231.461L86.7461 314.129C94.1786 327.004 108.031 335.135 122.898 335.135C137.763 335.135 151.615 327.004 159.048 314.129L206.686 231.461L194.184 209.099L140.128 302.948C136.75 309.047 129.994 312.773 123.235 312.773C116.139 312.773 109.72 309.047 106.342 302.948L64.7854 231.461L158.372 68.8354L175.265 98.3111C178.643 104.409 178.643 111.862 175.265 117.962L110.059 231.461L122.898 253.821L193.847 130.497L240.471 211.47C247.566 224.008 247.566 239.255 240.471 251.79L193.171 334.119C186.076 346.654 163.439 374.776 122.898 374.776C82.3549 374.776 60.055 346.654 52.6225 334.119L5.32294 251.79C-1.77041 239.255 -1.77041 224.008 5.32294 211.47L122.898 7.17188Z" fill="#191513"/>
<path fill-rule="evenodd" clip-rule="evenodd" d="M419.529 91.8838C430.166 91.8838 438.788 100.53 438.788 111.196C438.788 121.861 430.166 130.507 419.529 130.507C408.895 130.507 400.271 121.861 400.271 111.196C400.271 100.53 408.895 91.8838 419.529 91.8838ZM342.838 94.9306H375.609V289.066H342.838V94.9306ZM436.089 154.223H402.979V289.067H436.089V154.223ZM523.256 259.59C503.997 259.59 488.117 242.989 488.117 219.273C488.117 195.895 503.997 178.616 523.256 178.616C542.512 178.616 558.053 196.235 558.053 219.273C558.053 242.651 542.175 259.59 523.256 259.59ZM522.917 150.834C485.415 150.834 455.008 177.26 455.008 219.273C455.008 261.284 481.36 287.034 523.256 287.034C539.81 287.034 557.379 295.503 557.379 314.138C557.379 332.772 542.512 343.276 523.256 343.276C503.997 343.276 488.117 331.757 488.117 314.138H455.008C455.008 350.391 484.065 374.445 523.256 374.445C562.107 374.445 590.488 351.407 590.488 314.138C590.488 296.859 585.081 280.596 562.784 269.415C584.746 259.252 591.166 235.874 591.166 218.933C591.166 177.26 560.418 150.834 522.917 150.834ZM645.217 170.822C657.38 155.577 671.908 150.834 687.11 150.834C725.292 150.834 742.183 176.584 741.846 216.223V288.727H708.736V218.595C708.736 194.2 695.897 183.697 678.327 183.697C658.734 183.697 645.217 200.3 645.217 220.288V288.727H612.106V94.5918H645.217V170.822ZM822.594 266.026C818.535 266.026 815.162 264.67 813.136 261.961C811.103 259.251 810.09 255.185 810.09 249.086V182.681H836.781L839.82 153.883H810.431V116.954L776.979 120.679V154.221H751.643V183.018H776.979V250.104C776.979 263.995 780.36 274.498 786.779 281.611C793.199 288.727 802.999 292.455 815.496 292.455C821.24 292.455 826.646 291.777 832.387 290.083C838.135 288.389 843.201 286.017 847.594 282.967L836.105 261.623C831.716 264.67 826.988 266.026 822.594 266.026ZM913.946 206.069C929.447 207.082 945.273 208.116 958.751 216.563C969.899 223.339 973.951 235.874 973.28 248.411C973.28 270.771 955.712 285.678 935.097 290.422C907.735 296.521 877.663 290.762 856.041 272.803C856.041 272.803 855.028 271.787 854.015 271.109L870.909 249.765C878.676 254.846 885.774 258.912 894.561 261.284C903.006 263.318 911.452 263.996 919.897 263.656C927.665 263.318 938.819 260.608 940.504 251.458C943.208 238.246 927.665 235.874 918.206 234.858C916.595 234.661 914.952 234.473 913.286 234.283C900.633 232.836 886.687 231.242 875.637 224.355C864.489 217.579 857.733 205.72 857.733 192.847C857.733 161.675 890.167 150.834 914.826 150.834C936.117 150.834 951.995 154.9 967.532 168.453L948.949 190.135C939.491 181.326 928.343 178.276 915.504 178.276C899.626 178.276 890.843 183.02 890.843 191.491C890.843 203.35 904.695 205.382 913.813 206.06L913.946 206.069ZM1065.18 263.656C1042.55 263.656 1027.34 242.989 1027.34 221.983C1027.34 200.978 1041.53 178.616 1065.18 178.616C1089.17 178.616 1103.02 201.316 1103.02 221.983C1103.35 242.989 1087.81 263.656 1065.18 263.656ZM1067.88 150.834C1052.68 150.834 1034.77 157.272 1024.3 172.178L1023.28 153.884H991.187V348.019L1024.3 344.292V273.143C1033.76 287.712 1054.36 292.456 1068.56 292.456C1111.46 292.456 1136.47 260.268 1136.47 221.305C1136.47 181.666 1109.1 150.834 1067.88 150.834ZM1218.9 178.276C1238.16 178.276 1254.04 192.169 1257.75 208.092H1179.71C1184.44 190.475 1200.99 178.276 1218.9 178.276ZM1221.6 263.318C1197.95 263.318 1183.42 249.427 1179.71 233.504H1289.85C1293.23 178.616 1259.44 150.834 1218.9 150.834C1180.39 150.834 1148.96 180.65 1148.96 221.305C1148.96 264.333 1179.37 292.115 1221.27 292.115C1241.54 292.115 1264.85 285.002 1279.03 270.433L1257.75 249.427C1249.98 257.218 1233.76 263.318 1221.6 263.318ZM1411.47 208.092C1407.76 192.169 1391.88 178.276 1372.62 178.276C1354.72 178.276 1338.16 190.475 1333.43 208.092H1411.47ZM1333.09 233.504C1336.81 249.427 1351.34 263.318 1374.99 263.318C1387.15 263.318 1403.37 257.218 1411.14 249.427L1432.42 270.433C1418.24 285.002 1394.92 292.115 1374.65 292.115C1332.75 292.115 1302.34 264.333 1302.34 221.305C1302.34 180.65 1333.77 150.834 1372.28 150.834C1412.83 150.834 1446.62 178.616 1443.23 233.504H1333.09ZM1563.52 221.305C1563.52 200.301 1548.31 179.632 1525.68 179.632C1503.04 179.632 1487.84 200.301 1487.84 221.305C1487.84 241.974 1501.69 264.672 1525.68 264.672C1549.33 264.672 1563.52 242.312 1563.52 221.305ZM1566.89 271.109C1556.42 286.018 1538.51 292.456 1523.31 292.456C1482.09 292.456 1454.72 261.624 1454.72 222.321C1454.72 183.02 1479.39 151.175 1522.3 151.175C1536.49 151.175 1557.43 155.578 1566.89 170.147V94.9306H1600V289.066H1567.91L1566.89 271.109Z" fill="#191513"/>
</g>
<defs>
<clipPath id="clip0_6631_94046">
<rect width="1600" height="373.832" fill="white" transform="translate(0 0.952148)"/>
</clipPath>
</defs>
</svg>
